<?xml version="1.0" encoding="utf-8"?>
<!-- Generator: Adobe Illustrator 21.0.0, SVG Export Plug-In . SVG Version: 6.00 Build 0)  -->
<svg version="1.1" id="Calque_1" xmlns="http://www.w3.org/2000/svg" xmlns:xlink="http://www.w3.org/1999/xlink" x="0px" y="0px"
	 viewBox="0 0 100 100" style="enable-background:new 0 0 100 100;" xml:space="preserve">
<path d="M61.1,9.2c0.3,0.2,0.3,0.6,0,0.8l-10.3,7c-0.3,0.2-0.8,0-0.8-0.4v-3.8c-20.5,0-37.2,16.7-37.2,37.2
	c0,11.9,5.7,23.1,15.4,30.1l-3.8,5.3C13.1,77.2,6.4,64,6.4,50C6.3,25.9,25.9,6.3,50,6.3V2.5c0-0.4,0.5-0.6,0.8-0.4L61.1,9.2z
	 M93.7,50c0-13.9-6.7-27.2-18-35.4l-3.8,5.3c9.6,7,15.4,18.2,15.4,30.1c0,20.5-16.7,37.2-37.2,37.2l0,0v-3.8c0-0.4-0.5-0.6-0.8-0.4
	l-10.4,7c-0.3,0.2-0.3,0.6,0,0.8l10.3,7.1c0.3,0.2,0.8,0,0.8-0.4v-3.8l0,0C74.1,93.7,93.7,74.1,93.7,50z M52.9,25.5h-3.8
	c-0.6,0-1,0.5-1,1V31c-2.9,0.4-5.2,1.5-7,3.2c-2,1.9-2.9,4.3-2.9,7.2c0,3.2,0.9,5.6,2.8,7.3c1.9,1.7,4.8,3.3,8.9,4.9
	c1.7,0.7,2.8,1.5,3.5,2.2s1,1.8,1,3.2c0,1.2-0.3,2.1-1,2.8c-0.6,0.7-1.6,1.1-2.8,1.1c-1.5,0-2.7-0.5-3.6-1.4
	c-0.8-0.8-1.2-1.9-1.4-3.5c-0.1-0.6-0.6-1.1-1.2-1.1L38.1,57c-0.7,0-1.2,0.6-1.2,1.2c0.2,3.3,1.2,5.8,3.2,7.6c2.1,1.9,4.8,3.1,8,3.4
	v4.2c0,0.6,0.5,1,1,1h3.8c0.6,0,1-0.5,1-1v-4.3c2.6-0.5,4.6-1.5,6.2-3c1.9-1.8,2.8-4.2,2.8-7.2c0-3.1-0.9-5.6-2.8-7.2
	c-1.9-1.7-4.8-3.4-8.8-5.1c-1.7-0.8-2.9-1.5-3.5-2.2s-0.9-1.7-0.9-2.9s0.3-2.1,0.9-2.9c0.6-0.8,1.5-1.1,2.7-1.1s2.2,0.5,2.9,1.4
	c0.6,0.7,0.9,1.8,1,3.1c0.1,0.6,0.6,1.1,1.2,1l6.2-0.1c0.7,0,1.2-0.6,1.2-1.2c-0.2-2.7-1-5-2.6-6.8c-1.6-1.9-3.8-3.1-6.5-3.7v-4.7
	C53.9,26,53.5,25.5,52.9,25.5z"/>
</svg>
