<?xml version="1.0" encoding="utf-8"?>
<!-- Generator: Adobe Illustrator 21.0.0, SVG Export Plug-In . SVG Version: 6.00 Build 0)  -->
<svg version="1.1" id="Calque_1" xmlns="http://www.w3.org/2000/svg" xmlns:xlink="http://www.w3.org/1999/xlink" x="0px" y="0px"
	 viewBox="0 0 48 48" style="enable-background:new 0 0 48 48;" xml:space="preserve">
<g>
	<path d="M0.7,11.5c0,0,0,0.1-0.1,0.1c0,0.1-0.1,0.2-0.1,0.3V12c0,0.1,0,0.3,0,0.4s0,0.3,0,0.4v0.1c0,0.1,0.1,0.2,0.1,0.3
		c0,0,0,0.1,0.1,0.1c0,0.1,0.1,0.2,0.1,0.2l0.1,0.1C1,13.7,1,13.7,1.1,13.8l0,0l11.2,9.9c0.4,0.3,0.8,0.5,1.3,0.5s1.1-0.2,1.5-0.7
		c0.7-0.8,0.6-2-0.2-2.8l-7.4-6.5h37.9c1.1,0,2-0.9,2-2s-0.9-2-2-2H7.6L15,3.9c0.8-0.7,0.9-2,0.2-2.8s-2-0.9-2.8-0.2l-11.2,10l0,0
		C1.1,11,1,11.1,1,11.1l-0.1,0.1C0.8,11.3,0.8,11.4,0.7,11.5z"/>
	<path d="M47.3,36.5C47.3,36.5,47.3,36.4,47.3,36.5c0.1-0.2,0.2-0.3,0.2-0.4V36c0-0.1,0-0.3,0-0.4s0-0.3,0-0.4v-0.1
		c0-0.1-0.1-0.2-0.1-0.3c0,0,0-0.1-0.1-0.1c0-0.1-0.1-0.2-0.1-0.2l-0.1-0.1c-0.1-0.1-0.1-0.1-0.2-0.2l0,0l-11.2-9.9
		c-0.8-0.7-2.1-0.6-2.8,0.2c-0.7,0.8-0.6,2,0.2,2.8l7.4,6.5h-38c-1.1,0-2,0.9-2,2s0.9,2,2,2h37.9L33,44.1c-0.8,0.7-0.9,2-0.2,2.8
		c0.4,0.4,0.9,0.7,1.5,0.7c0.5,0,0.9-0.2,1.3-0.5l11.2-9.9l0,0c0.1-0.1,0.1-0.1,0.2-0.2l0.1-0.1C47.2,36.7,47.2,36.6,47.3,36.5z"/>
</g>
</svg>
